<?xml version="1.0" encoding="utf-8"?>
<!-- Generator: Adobe Illustrator 25.4.1, SVG Export Plug-In . SVG Version: 6.00 Build 0)  -->
<svg version="1.1" id="Capa_1" xmlns="http://www.w3.org/2000/svg" xmlns:xlink="http://www.w3.org/1999/xlink" x="0px" y="0px"
	 viewBox="0 0 512 512" style="enable-background:new 0 0 512 512;" xml:space="preserve">
<style type="text/css">
	.st0{fill:#C49A6D;}
</style>
<path class="st0" d="M280,145.3V112h16c13.3,0,24-10.7,24-24s-10.7-24-24-24h-80.9C202.7,64,192,74.8,192,87.1s10.7,24.9,23.1,24.9
	H232v33.3C119.6,157.3,32,252.4,32,368h448C480,252.4,392.4,157.3,280,145.3z M488,400H24c-13.2,0-24,10.7-24,23.1
	C0,437.3,10.8,448,23.1,448h464c13.2,0,24-10.8,24-23.1C512,410.7,501.3,400,488,400z"/>
</svg>
