<svg xmlns="http://www.w3.org/2000/svg" viewBox="0 0 169.77 46.88"><defs><style>.cls-1{fill:#fff;}</style></defs><g id="Capa_2" data-name="Capa 2"><g id="Capa_1-2" data-name="Capa 1"><g id="Capa_2-2" data-name="Capa 2"><g id="Capa_1-2-2" data-name="Capa 1-2"><polygon class="cls-1" points="23.61 20 23.61 2.61 12.71 27.29 11.77 27.29 0.94 2.61 0.94 27.29 0 27.29 0 0 3.81 0 13.85 22.61 23.75 0 27.49 0 27.49 27.36 23.55 27.36 23.55 20 23.61 20"/><path class="cls-1" d="M50,17.26H40l-3.81,10H34.72L46,0h.8L58.4,27.29H54.11c-1.47-3.54-2.07-5-2.07-5Zm-.33-.87L44.88,5,40.2,16.39Z"/><path class="cls-1" d="M83.68,23.34a11.47,11.47,0,0,1-8.9,4,12.6,12.6,0,0,1-9.3-3.61,13,13,0,0,1-3.61-9.57A16.47,16.47,0,0,1,63.55,6.8a11,11,0,0,1,4.68-5.15A13.5,13.5,0,0,1,74.78,0a12.05,12.05,0,0,1,8.9,3.81V4l-.81.73a5.61,5.61,0,0,0-1.47-1.6A9.61,9.61,0,0,0,75.32,1a8,8,0,0,0-6.63,3.35c-1.6,2.21-2.4,5.41-2.4,9.56,0,3.95.87,7,2.67,9.1a8.47,8.47,0,0,0,6.62,3.14,10.57,10.57,0,0,0,4.35-1,7.23,7.23,0,0,0,3-2.67Z"/><path class="cls-1" d="M102.81,17.26h-10L89,27.29H87.49L98.8,0h.8l11.57,27.29h-4.28c-1.47-3.54-2.07-5-2.07-5Zm-.33-.87L97.73,5,93.05,16.39Z"/><polygon class="cls-1" points="142.14 20 142.14 2.61 131.24 27.29 130.3 27.29 119.47 2.61 119.47 27.29 118.53 27.29 118.53 0 122.34 0 132.38 22.61 142.34 0 146.09 0 146.09 27.36 142.14 27.36 142.14 20"/><polygon class="cls-1" points="161.34 26.36 169.7 26.36 169.7 27.29 153.85 27.29 153.85 0 169.77 0 169.77 0.94 157.79 0.94 157.79 12.51 165.69 12.51 165.69 13.45 157.79 13.45 157.79 26.36 161.34 26.36"/><path class="cls-1" d="M61.47,45.69a2.49,2.49,0,0,1-.74.67,3.62,3.62,0,0,1-1.67.47,3.31,3.31,0,0,1-1.6-.41,3,3,0,0,1-1.21-1.2,3.39,3.39,0,0,1-.47-1.87,3.78,3.78,0,0,1,.94-2.61,3,3,0,0,1,2.34-1,2.51,2.51,0,0,1,2,.8,2.48,2.48,0,0,1,.67,1.73H57.19c0,.34-.07.54-.07.74a5.77,5.77,0,0,0,.53,2.68,1.76,1.76,0,0,0,1.61.87,2.17,2.17,0,0,0,1.87-.94Zm-4.28-3.88h3.54A1.81,1.81,0,0,0,59,40c-1.08,0-1.61.61-1.81,1.81"/><path class="cls-1" d="M69,45.29a1.92,1.92,0,0,1-.8,1.27,2,2,0,0,1-1.54.27,2.3,2.3,0,0,1-1.47-1.07l.27-.21a1.61,1.61,0,0,0,1.2.88,1.06,1.06,0,0,0,.94-.21,1.26,1.26,0,0,0,.46-.73,1.45,1.45,0,0,0-.13-.94,3.54,3.54,0,0,0-1.14-1,3.94,3.94,0,0,1-1.2-1.27,1.77,1.77,0,0,1-.2-1.21,2,2,0,0,1,.73-1.13,1.51,1.51,0,0,1,1.41-.34,1.8,1.8,0,0,1,1.21.87l-.27.2a1.37,1.37,0,0,0-1-.73,1,1,0,0,0-.8.13,1,1,0,0,0-.47.6.93.93,0,0,0,.21.8,3.66,3.66,0,0,0,1.06.94A3.51,3.51,0,0,1,68.83,44,3.3,3.3,0,0,1,69,45.29"/><path class="cls-1" d="M73.58,39.87V37.8h1.13v2.07h2v.4h-2v4a6.83,6.83,0,0,0,.07,1.28.94.94,0,0,0,.34.53.73.73,0,0,0,.53.2,1.13,1.13,0,0,0,1-.67l.26.14a1.72,1.72,0,0,1-.73.8,2,2,0,0,1-1,.27,1.65,1.65,0,0,1-1-.34,1.33,1.33,0,0,1-.53-.8,7.9,7.9,0,0,1-.14-1.61V40.34h-.94v-.47Z"/><path class="cls-1" d="M80.87,45.09a1.14,1.14,0,0,1,1.47,0,.94.94,0,0,1,.27.73,1,1,0,0,1-2-.12A1.05,1.05,0,0,1,80.87,45.09Z"/><polygon class="cls-1" points="90.23 46.42 90.23 37.8 88.36 37.8 88.36 38 89.16 38 89.16 46.42 90.23 46.42"/><path class="cls-1" d="M98.33,41.74a6,6,0,0,0-.27-1.87,3,3,0,0,0-.94-1.47,2.5,2.5,0,0,0-1.67-.61,2.55,2.55,0,0,0-1.94.81,2.48,2.48,0,0,0-.67,1.87,2.8,2.8,0,0,0,.67,1.94,2.49,2.49,0,0,0,1.88.74,2.29,2.29,0,0,0,.93-.2,3.87,3.87,0,0,0,.67-.54l.2-.2v.33a5,5,0,0,1-.53,2.61,1.62,1.62,0,0,1-1.54.87c-.4,0-.87,0-1.07-.26l-.34.33a2.52,2.52,0,0,0,1.21.27A3,3,0,0,0,97.39,45a5.11,5.11,0,0,0,.94-3.28m-1.61.67a1.59,1.59,0,0,1-1.2.47,2.22,2.22,0,0,1-.94-.27,2,2,0,0,1-.6-.73,3.34,3.34,0,0,1-.2-1.21,3.71,3.71,0,0,1,.47-1.87,1.33,1.33,0,0,1,1.2-.6,1.54,1.54,0,0,1,.94.33,2.33,2.33,0,0,1,.6.94,3.78,3.78,0,0,1,.2,1.2A2.18,2.18,0,0,1,96.72,42.39Z"/><path class="cls-1" d="M106.55,43.28h-1.8V37.86h-.34l-3.88,5.35v.34h3.08v2.94h1.14V43.55h1.8Zm-2.94,0h-2.88l2.88-4Z"/><path class="cls-1" d="M114,44.15a2.15,2.15,0,0,0-.6-1.54,2.6,2.6,0,0,0-.94-.6l-.34-.07.27-.13a2,2,0,0,0,.87-.67,2.11,2.11,0,0,0,.47-1.27,1.78,1.78,0,0,0-.74-1.54,2.17,2.17,0,0,0-1.54-.54,2.31,2.31,0,0,0-1.6.6,2,2,0,0,0-.67,1.48,1.75,1.75,0,0,0,.47,1.27,2.45,2.45,0,0,0,.8.67l.27.13-.27.07a2.56,2.56,0,0,0-1.07.67,2.12,2.12,0,0,0-.53,1.4,2,2,0,0,0,.73,1.61,2.48,2.48,0,0,0,1.74.67,2.6,2.6,0,0,0,1.73-.61,1.57,1.57,0,0,0,1-1.6m-3.55-2.88a3.17,3.17,0,0,1-.33-1.54,1.83,1.83,0,0,1,.4-1.27,1.32,1.32,0,0,1,1.84,0l.1.1a1.84,1.84,0,0,1,.33,1.34,2.79,2.79,0,0,1-.33,1.47,1.15,1.15,0,0,1-1.07.47,1,1,0,0,1-.94-.54m2.14,4.49a1.57,1.57,0,0,1-1.13.4,1.34,1.34,0,0,1-1.34-.94,4.4,4.4,0,0,1-.14-1.14,2.56,2.56,0,0,1,.41-1.47,1.29,1.29,0,0,1,1.13-.53,1.54,1.54,0,0,1,1.14.4,2.31,2.31,0,0,1,.47,1.6,2.16,2.16,0,0,1-.54,1.68"/></g></g></g></g></svg>